<svg t="1711528991758" class="icon" viewBox="0 0 1024 1024" version="1.1" xmlns="http://www.w3.org/2000/svg" p-id="4597" id="mx_n_1711528991760" width="32" height="32"><path d="M490.057143 950.857143c-73.142857-7.314286-146.285714-29.257143-204.8-65.828572-102.4-58.514286-168.228571-153.6-197.485714-270.628571-29.257143-109.714286-14.628571-234.057143 51.2-329.142857 124.342857-204.8 394.971429-270.628571 599.771428-146.285714 197.485714 117.028571 263.314286 365.714286 160.914286 570.514285l-65.828572-29.257143c87.771429-168.228571 21.942857-380.342857-138.971428-475.428571C533.942857 95.085714 307.2 146.285714 197.485714 321.828571c-51.2 80.457143-65.828571 182.857143-43.885714 277.942858a351.085714 351.085714 0 0 0 168.228571 226.742857c51.2 29.257143 109.714286 51.2 168.228572 51.2v73.142857z" fill="#ffffff" p-id="4598"></path><path d="M870.4 775.314286L665.6 665.6l36.571429-65.828571 204.8 109.714285z" fill="#ffffff" p-id="4599"></path></svg>